HIERARCHY
ROOT Hips
{
  OFFSET -33.9132 29.2015 117.021
  CHANNELS 6 Xposition Yposition Zposition Zrotation Xrotation Yrotation
  JOINT LeftUpLeg
  {
    OFFSET 8.64259 1.95398 -2.38835
    CHANNELS 3 Zrotation Xrotation Yrotation
    JOINT LeftLeg
    {
      OFFSET 43.7702 0 0
      CHANNELS 3 Zrotation Xrotation Yrotation
      JOINT LeftFoot
      {
        OFFSET 40.6238 0 0
        CHANNELS 3 Zrotation Xrotation Yrotation
        JOINT LeftToeBase
        {
          OFFSET 12.7242 0 0
          CHANNELS 3 Zrotation Xrotation Yrotation
          End Site
          {
            OFFSET 0 0 0
          }
        }
      }
    }
  }
  JOINT RightUpLeg
  {
    OFFSET -8.2249 1.95398 -2.59336
    CHANNELS 3 Zrotation Xrotation Yrotation
    JOINT RightLeg
    {
      OFFSET 43.5653 0 0
      CHANNELS 3 Zrotation Xrotation Yrotation
      JOINT RightFoot
      {
        OFFSET 40.6238 0 0
        CHANNELS 3 Zrotation Xrotation Yrotation
        JOINT RightToeBase
        {
          OFFSET 12.7242 0 0
          CHANNELS 3 Zrotation Xrotation Yrotation
          End Site
          {
            OFFSET 0 0 0
          }
        }
      }
    }
  }
  JOINT Spine
  {
    OFFSET 0.165834 0.87714 6.61349
    CHANNELS 3 Zrotation Xrotation Yrotation
    JOINT Spine1
    {
      OFFSET 7.38963 1.71661e-005 0
      CHANNELS 3 Zrotation Xrotation Yrotation
      JOINT Spine2
      {
        OFFSET 11.9445 1.14441e-005 0
        CHANNELS 3 Zrotation Xrotation Yrotation
        JOINT Spine3
        {
          OFFSET 14.7254 4.19617e-005 0
          CHANNELS 3 Zrotation Xrotation Yrotation
          JOINT Spine4
          {
            OFFSET 10.9679 0 0
            CHANNELS 3 Zrotation Xrotation Yrotation
            JOINT RightShoulder
            {
              OFFSET 2.46616 -1.6653 3.69651
              CHANNELS 3 Zrotation Xrotation Yrotation
              JOINT RightArm
              {
                OFFSET 13.0012 0 0
                CHANNELS 3 Zrotation Xrotation Yrotation
                JOINT RightForeArm
                {
                  OFFSET 28.7848 1.62311e-005 0
                  CHANNELS 3 Zrotation Xrotation Yrotation
                  JOINT RightHand
                  {
                    OFFSET 26.5688 1.62095e-005 0
                    CHANNELS 3 Zrotation Xrotation Yrotation
                    End Site
                    {
                      OFFSET 0 0 0
                    }
                  }
                }
              }
            }
            JOINT LeftShoulder
            {
              OFFSET 2.38034 -1.29275 -3.7523
              CHANNELS 3 Zrotation Xrotation Yrotation
              JOINT LeftArm
              {
                OFFSET 16.3182 6.07031e-005 0
                CHANNELS 3 Zrotation Xrotation Yrotation
                JOINT LeftForeArm
                {
                  OFFSET 27.0901 0 0
                  CHANNELS 3 Zrotation Xrotation Yrotation
                  JOINT LeftHand
                  {
                    OFFSET 24.5451 1.51738e-005 0
                    CHANNELS 3 Zrotation Xrotation Yrotation
                    End Site
                    {
                      OFFSET 0 0 0
                    }
                  }
                }
              }
            }
            JOINT Neck
            {
              OFFSET 5.0226 -0.0266342 0
              CHANNELS 3 Zrotation Xrotation Yrotation
              JOINT Head
              {
                OFFSET 6.69364 2.86102e-005 0
                CHANNELS 3 Zrotation Xrotation Yrotation
                End Site
                {
                  OFFSET 0 0 0
                }
              }
            }
          }
        }
      }
    }
  }
}
MOTION
Frames:	7
Frame Time:	0.0416667
28.2629 99.4726 19.6964 18.3976 -70.6682 14.7297 -178.836 29.3748 86.7916 -14.7308 12.8392 -0.427712 66.2734 3.14151 -3.33313 13.3066 -12.5285 7.96895 176.936 25.5043 89.4951 -9.90768 -10.798 0.122657 65.8454 -3.73615 -5.98341 18.2139 3.69898 3.52494 0.408194 8.8807 -90.8658 9.1126 0.427072 -1.7449 -2.55948 0.349872 -1.76201 -25.0875 0.931671 -1.53597 -5.07486 0.931674 -1.53596 87.5514 -25.8474 -113.567 35.9844 4.88134 -34.8068 -5.56135 -45.6132 -5.61097 -17.8088 2.11902 -19.2213 -92.9707 -42.5666 72.197 -28.884 5.43491 -58.84 -15.1651 44.3687 0.0281244 5.01821 -0.251342 -15.7771 12.2082 23.6355 10.1284 -5.49839 20.4256 12.74 
28.5418 99.5092 19.7398 21.1579 -70.9069 17.6111 -179.088 28.6632 86.5391 -14.3443 13.6123 -0.0768117 65.9838 2.62916 -3.36571 13.2939 -12.7352 8.27158 176.705 25.0359 89.3191 -10.2553 -9.91309 0.219358 66.0588 -3.73813 -5.58066 18.5032 3.63827 3.33426 0.396514 8.9724 -90.9607 8.92833 0.362942 -1.92643 -2.74399 0.277826 -1.94052 -25.2699 0.925054 -1.7284 -5.25727 0.925054 -1.72838 87.4528 -25.4779 -113.961 35.9971 5.26126 -33.0474 -5.43015 -43.9075 -5.52976 -19.8936 1.95982 -16.7623 -92.7222 -41.8563 72.3805 -28.437 3.83692 -56.9601 -14.7858 44.513 0.0309741 4.83813 -0.100883 -14.292 10.1281 22.6602 7.36422 -5.86916 20.2627 12.2512 
28.735 99.5418 19.8995 25.4979 -71.1247 22.0268 -179.241 27.849 86.2733 -14.2405 14.6842 0.129344 65.9177 2.55274 -3.38421 13.0657 -12.6616 7.94142 176.519 24.2091 89.1502 -10.5268 -8.86037 0.205373 66.2905 -3.77381 -5.58103 18.7628 3.61256 3.08191 0.370915 8.93979 -91.0551 8.99201 0.269185 -2.10758 -2.68061 0.176186 -2.11739 -25.2041 0.890037 -1.92936 -5.19141 0.890041 -1.92937 87.4296 -25.5703 -113.962 35.7059 6.27751 -29.2802 -5.4185 -43.6866 -5.52046 -18.649 2.00569 -17.8528 -92.9335 -42.9781 72.3822 -27.9124 1.45488 -54.9854 -14.0069 45.73 0.0340126 3.93149 0.228851 -11.7605 7.95521 20.9887 4.65597 -5.48793 19.4026 11.1111 
28.8526 99.6403 20.1552 28.8498 -71.9073 25.6913 -179.094 26.7167 86.4162 -14.6367 15.8256 0.13899 66.1006 2.8005 -3.02444 12.9167 -12.9919 8.29837 176.455 22.6201 89.4011 -10.3467 -8.1954 0.136334 66.1514 -3.63255 -5.15253 19.2867 3.76387 1.97199 0.393541 8.93423 -91.1327 9.00263 0.279603 -2.26215 -2.67029 0.179793 -2.27228 -25.1918 0.946393 -2.07369 -5.17922 0.9464 -2.07369 87.5073 -26.1541 -113.502 35.913 6.74999 -26.2726 -5.55164 -45.4831 -5.60522 -19.6422 1.73656 -15.5903 -92.7514 -43.3743 72.7921 -27.2659 -0.0118804 -52.9847 -13.5313 46.0249 0.0361247 3.40124 0.395259 -9.96334 6.7754 19.6894 2.57091 -5.05617 18.6319 10.9516 
29.0138 99.7503 20.468 34.4782 -72.2264 31.6535 -179.012 25.613 86.5155 -15.0384 17.0438 0.140465 66.3422 3.24132 -3.21569 12.7089 -12.7078 7.67202 176.285 20.8847 89.5364 -9.96628 -6.8458 0.14832 66.1583 -3.66652 -4.99939 19.5971 3.82614 1.38664 0.378081 8.89136 -91.2623 9.08645 0.190089 -2.51312 -2.58694 0.0793313 -2.51907 -25.1047 0.936375 -2.33999 -5.09205 0.936388 -2.34 87.999 -26.4883 -112.323 36.1374 6.99582 -24.3444 -5.59377 -46.0372 -5.63244 -17.9859 1.66164 -16.1167 -92.7338 -43.8376 72.9571 -26.154 -0.169562 -51.8543 -13.6879 45.2393 0.0370996 5.36612 0.0709915 -11.3739 5.74922 18.6957 1.86552 -4.85418 17.8651 9.80796 
29.0858 99.8462 20.8267 43.3587 -72.4822 40.7749 -178.524 24.0019 86.6743 -15.7217 19.7395 -0.325604 66.63 3.89714 -2.86108 12.5072 -12.9625 7.86408 175.924 18.3249 89.6008 -9.52249 -4.99417 0.260818 66.3765 -3.81841 -4.73608 19.8021 3.89526 0.912682 0.367151 8.87212 -91.371 9.1229 0.119218 -2.72367 -2.55091 -0.000725638 -2.72629 -25.0652 0.932008 -2.56213 -5.05253 0.932014 -2.56213 87.18 -26.8309 -113.829 35.2482 8.11541 -21.2888 -5.63435 -46.576 -5.65883 -17.0285 1.66339 -16.7868 -92.6871 -43.5268 72.94 -26.4257 1.1644 -51.902 -14.2182 44.3532 0.0375887 5.24989 0.0341459 -11.6055 5.21776 17.5416 0.685397 -4.37936 17.0256 7.54289 
29.2392 99.7974 21.2148 51.6921 -72.4625 49.2016 -178.33 22.7451 86.6975 -17.2249 21.6906 -0.398142 67.352 4.65436 -2.6312 12.8286 -12.8481 7.99683 175.288 16.5457 89.5182 -10.5551 -3.67767 0.621427 67.4056 -4.36012 -4.96173 19.6834 3.83892 1.23445 0.333037 8.79836 -91.4293 9.26885 0.0231934 -2.83342 -2.40519 -0.101478 -2.83171 -24.9173 0.873367 -2.69566 -4.90464 0.873377 -2.69566 86.9342 -27.5557 -113.96 35.4343 8.21748 -20.1165 -5.60967 -46.2529 -5.64268 -17.4565 1.60161 -16.0714 -92.5962 -43.6737 73.1282 -26.3195 3.5707 -51.6289 -15.2027 41.893 0.0367529 6.522 -0.208033 -11.9879 5.29986 15.5734 -1.81978 -4.57932 15.5329 7.23995 
